<?xml version="1.0" encoding="utf-8"?>
<!-- Generator: Adobe Illustrator 23.0.2, SVG Export Plug-In . SVG Version: 6.00 Build 0)  -->
<svg version="1.1" id="Layer_1" xmlns="http://www.w3.org/2000/svg" xmlns:xlink="http://www.w3.org/1999/xlink" x="0px" y="0px"
	 viewBox="0 0 612 792" style="enable-background:new 0 0 612 792;" xml:space="preserve">
<style type="text/css">
	.st0{fill:#99BD67;}
</style>
<g>
	<g>
		<g>
			<path class="st0" d="M354.8,295.9v154.4c15.8-20.5,37.3-36.5,62.1-45.5V297.3c0-63.6-40-108.3-107.8-108.3
				c-65.5,0-108.8,46.1-109.2,107.3c24.7,8.6,46.1,24.1,62.1,44.1v-44.6c0-27.3,19.8-46.2,47.1-46.2
				C350.1,249.7,354.8,282.2,354.8,295.9z"/>
			<path class="st0" d="M154.6,317c67.8,0,107.8,44.7,107.8,108.3v176.2h-62.2V423.9c0-13.7-4.7-46.2-45.7-46.2
				c-27.3,0-47.1,18.8-47.1,46.2v177.6H45.3V425.3C45.3,363.6,88.7,317,154.6,317z"/>
			<path class="st0" d="M465.3,482.4c41,0,45.7,32.5,45.7,46.2V609c17.2-6.5,37.3-10.2,60.3-10.2c0.6,0,1.2,0,1.8,0V530
				c0-63.6-40-108.3-107.8-108.3C399.4,421.7,356,468.3,356,530v71.5h62.2v-72.9C418.2,501.3,438,482.4,465.3,482.4z"/>
		</g>
	</g>
</g>
</svg>
